<svg id="svg" version="1.1" xmlns="http://www.w3.org/2000/svg" xmlns:xlink="http://www.w3.org/1999/xlink" width="35" height="35" viewBox="0, 0, 400,400"><g id="svgg"><path id="path0" d="M198.007 3.132 C 196.430 4.709,196.666 0.799,194.794 56.200 C 194.578 62.580,194.223 71.670,194.004 76.400 C 193.786 81.130,193.409 90.850,193.167 98.000 C 192.925 105.150,192.600 112.530,192.444 114.400 L 192.160 117.800 191.672 116.000 C 191.175 114.168,188.621 106.525,184.654 95.000 C 181.017 84.433,180.674 82.194,180.607 68.600 C 180.525 51.923,178.855 45.810,170.228 30.600 C 165.740 22.689,164.962 18.301,166.943 12.079 C 168.898 5.939,166.448 3.722,162.377 7.946 C 156.667 13.870,156.766 25.745,162.630 38.451 C 167.525 49.058,168.635 55.136,168.176 68.800 C 167.587 86.330,168.249 91.535,172.811 105.193 C 174.771 111.063,176.814 119.933,176.784 122.450 L 176.769 123.800 176.238 122.600 C 175.100 120.029,168.619 105.985,166.760 102.062 C 165.682 99.787,164.800 97.853,164.800 97.765 C 164.800 97.677,162.370 92.370,159.400 85.971 C 156.430 79.571,154.000 74.279,154.000 74.210 C 154.000 74.141,152.090 69.971,149.755 64.942 C 147.421 59.914,145.153 54.990,144.717 54.000 C 144.280 53.010,143.198 50.670,142.312 48.800 C 141.426 46.930,140.437 44.770,140.114 44.000 C 133.557 28.356,127.465 16.800,125.774 16.800 C 121.669 16.800,121.562 19.234,125.239 29.033 C 126.801 33.195,128.763 38.490,129.598 40.800 C 131.680 46.552,135.726 57.441,137.402 61.800 C 138.163 63.780,139.226 66.660,139.764 68.200 C 140.302 69.740,141.401 72.710,142.206 74.800 C 143.011 76.890,144.441 80.762,145.384 83.405 C 146.327 86.048,147.560 89.378,148.124 90.805 C 148.688 92.232,150.434 96.910,152.005 101.200 C 153.576 105.490,156.287 112.808,158.030 117.461 C 161.820 127.577,161.828 127.641,158.871 123.926 C 157.589 122.317,153.944 118.139,150.771 114.641 C 139.150 101.836,136.002 97.363,133.353 89.897 C 127.729 74.046,122.413 66.636,109.000 55.952 C 100.213 48.953,98.301 46.143,97.576 39.156 C 97.138 34.943,97.024 34.631,95.706 34.030 C 91.842 32.269,89.533 40.925,91.935 48.165 C 94.084 54.642,96.113 57.572,103.590 65.000 C 113.416 74.760,116.422 79.495,121.049 92.502 C 125.431 104.820,128.857 111.109,135.595 119.200 C 144.556 129.963,146.960 133.178,148.880 136.969 L 149.706 138.600 148.761 137.800 C 148.241 137.360,145.653 135.002,143.008 132.560 C 133.382 123.671,114.124 105.809,111.180 103.040 C 109.520 101.478,107.180 99.297,105.980 98.193 C 101.438 94.011,81.488 75.498,74.084 68.595 C 62.999 58.259,61.205 57.317,59.543 60.965 C 58.566 63.109,59.148 63.953,68.595 74.084 C 72.552 78.328,80.377 86.750,85.985 92.800 C 100.134 108.064,99.936 107.851,103.068 111.200 C 104.610 112.850,110.797 119.510,116.815 126.000 C 122.833 132.490,129.701 139.897,132.078 142.460 C 135.900 146.580,137.694 148.879,135.700 147.099 C 135.014 146.488,126.544 142.167,121.000 139.601 C 106.331 132.812,100.391 128.813,94.168 121.537 C 88.670 115.108,81.300 109.609,73.709 106.272 C 70.760 104.975,67.562 103.884,56.103 100.263 C 49.409 98.148,46.448 95.808,43.815 90.551 C 41.675 86.280,39.980 85.400,38.279 87.681 C 36.019 90.710,38.731 97.989,44.080 103.249 C 48.617 107.712,50.576 108.813,61.769 113.196 C 64.611 114.309,67.581 115.607,68.369 116.080 C 74.674 119.871,79.465 123.770,83.859 128.686 C 94.692 140.808,100.332 145.286,113.000 151.820 C 123.700 157.340,133.635 164.090,127.750 161.841 C 122.990 160.023,102.208 152.329,85.400 146.163 C 82.100 144.953,77.330 143.177,74.800 142.217 C 70.393 140.544,68.720 139.922,57.000 135.597 C 54.140 134.542,50.270 133.102,48.400 132.399 C 46.530 131.695,43.110 130.433,40.800 129.595 C 38.490 128.757,33.180 126.796,29.000 125.238 C 19.168 121.573,16.800 121.677,16.800 125.774 C 16.800 127.465,28.356 133.557,44.000 140.114 C 44.770 140.437,46.930 141.422,48.800 142.303 C 53.046 144.304,60.566 147.775,69.400 151.810 C 73.140 153.519,81.017 157.141,86.904 159.858 C 92.792 162.576,97.680 164.800,97.767 164.800 C 97.853 164.800,99.787 165.680,102.062 166.755 C 109.931 170.472,117.670 174.035,119.249 174.666 C 121.547 175.586,120.970 175.707,116.539 175.235 C 114.373 175.004,108.210 174.623,102.845 174.389 C 87.725 173.731,80.283 172.134,71.248 167.613 C 60.942 162.455,50.336 160.782,37.000 162.210 C 22.067 163.810,18.990 163.321,13.512 158.483 C 10.766 156.058,9.890 155.718,8.587 156.572 C 5.160 158.817,9.857 165.977,17.015 169.420 C 22.946 172.273,24.124 172.471,37.200 172.809 C 43.690 172.977,49.360 173.213,49.800 173.334 C 50.240 173.454,51.950 173.860,53.600 174.236 C 57.582 175.143,62.199 176.931,69.000 180.199 C 81.665 186.284,85.970 187.396,103.065 188.998 C 112.161 189.851,119.082 191.064,120.113 191.987 C 120.494 192.327,100.151 193.184,38.800 195.413 C -0.016 196.823,3.243 196.476,2.234 199.310 C 0.987 202.810,3.225 203.401,19.800 203.952 C 62.064 205.356,117.754 207.579,117.481 207.852 C 117.407 207.927,115.493 208.521,113.229 209.172 C 110.965 209.824,105.650 211.620,101.417 213.164 C 85.825 218.849,80.969 219.799,69.600 219.385 C 55.988 218.890,46.554 221.056,35.200 227.285 C 21.116 235.011,19.374 235.426,11.485 232.938 C 4.218 230.646,4.176 236.903,11.438 240.016 C 18.959 243.240,27.811 242.325,38.888 237.177 C 49.879 232.069,54.410 231.457,77.600 231.948 C 87.189 232.151,95.351 230.738,105.580 227.107 C 110.434 225.383,117.428 223.696,120.864 223.419 L 123.800 223.182 122.200 223.985 C 121.320 224.426,118.170 225.890,115.200 227.237 C 112.230 228.584,106.740 231.090,103.000 232.805 C 99.260 234.520,90.440 238.555,83.400 241.772 C 76.360 244.989,70.258 247.815,69.840 248.051 C 69.422 248.288,67.712 249.073,66.040 249.797 C 64.368 250.520,61.650 251.742,60.000 252.512 C 58.350 253.283,53.580 255.482,49.400 257.399 C 40.197 261.619,34.560 264.217,26.479 267.963 C 23.112 269.523,20.260 270.800,20.140 270.800 C 18.413 270.800,16.527 273.976,17.237 275.689 C 18.228 278.081,19.961 278.156,25.628 276.050 C 27.923 275.198,34.300 272.845,39.800 270.821 C 45.300 268.797,51.150 266.619,52.800 265.980 C 54.450 265.341,58.230 263.929,61.200 262.841 C 64.170 261.753,70.560 259.393,75.400 257.598 C 87.199 253.221,95.920 249.990,107.200 245.818 C 112.370 243.906,118.709 241.544,121.287 240.571 C 127.018 238.405,127.442 238.378,124.829 240.341 C 123.701 241.189,120.241 244.204,117.141 247.041 C 103.273 259.733,97.094 264.234,90.400 266.520 C 74.182 272.057,67.054 277.147,55.869 291.175 C 49.219 299.516,45.069 302.400,39.715 302.400 C 33.560 302.400,31.822 305.479,36.442 308.200 C 38.266 309.274,44.307 309.288,47.800 308.227 C 54.031 306.332,57.736 303.776,65.253 296.185 C 74.399 286.950,80.578 283.034,92.423 278.966 C 105.745 274.390,110.805 271.482,122.588 261.634 C 128.856 256.395,134.031 252.624,137.163 251.015 L 138.525 250.315 137.631 251.457 C 137.140 252.086,135.627 253.772,134.269 255.205 C 132.911 256.638,130.810 258.888,129.600 260.206 C 126.837 263.215,118.360 272.354,114.400 276.593 C 111.125 280.099,103.172 288.674,101.642 290.351 C 101.115 290.928,98.674 293.560,96.218 296.200 C 93.761 298.840,88.086 304.960,83.605 309.800 C 79.125 314.640,72.258 322.047,68.345 326.259 C 58.735 336.606,58.218 337.444,60.029 339.746 C 62.144 342.435,62.019 342.521,78.984 326.810 C 86.235 320.094,95.955 311.100,100.584 306.821 C 105.213 302.543,111.610 296.594,114.800 293.601 C 135.580 274.107,150.124 260.913,147.099 264.300 C 146.502 264.969,140.000 277.628,140.000 278.121 C 140.000 278.252,138.627 281.173,136.949 284.613 C 131.967 294.826,127.927 300.352,121.245 306.096 C 110.959 314.936,106.987 322.109,100.254 344.002 C 98.164 350.797,95.765 353.736,90.094 356.448 C 84.881 358.941,85.463 362.629,91.047 362.482 C 99.503 362.260,107.336 353.810,112.951 338.854 C 116.207 330.181,121.651 322.346,128.826 316.008 C 140.546 305.656,145.288 299.675,151.827 287.000 C 156.083 278.748,161.658 269.924,162.243 270.510 C 162.386 270.653,159.605 278.513,156.620 286.400 C 154.551 291.868,152.917 296.265,145.465 316.400 C 142.738 323.770,138.566 335.020,136.196 341.400 C 133.825 347.780,131.027 355.340,129.979 358.200 C 128.931 361.060,126.797 366.867,125.237 371.105 C 122.109 379.602,121.917 380.753,123.382 382.218 C 125.356 384.192,127.835 382.979,129.491 379.229 C 130.033 378.003,131.269 375.336,132.238 373.302 C 133.207 371.267,134.000 369.519,134.000 369.417 C 134.000 369.314,135.080 366.952,136.400 364.167 C 137.720 361.383,138.800 359.050,138.800 358.983 C 138.800 358.916,139.714 356.913,140.831 354.531 C 141.947 352.149,143.104 349.660,143.402 349.000 C 143.699 348.340,146.023 343.268,148.567 337.730 C 151.110 332.191,153.813 326.251,154.573 324.530 C 155.333 322.808,156.595 320.090,157.377 318.489 C 158.160 316.889,158.800 315.504,158.800 315.413 C 158.800 315.322,159.681 313.392,160.758 311.124 C 161.835 308.856,163.564 305.110,164.601 302.800 C 165.638 300.490,167.153 297.160,167.967 295.400 C 168.781 293.640,170.783 289.286,172.416 285.725 C 174.048 282.164,175.448 279.314,175.526 279.392 C 175.603 279.470,175.483 281.124,175.258 283.067 C 175.032 285.010,174.736 289.750,174.600 293.600 C 173.966 311.497,172.502 318.872,167.629 328.703 C 162.356 339.342,160.730 349.776,162.252 363.200 C 163.798 376.841,163.122 381.177,158.641 386.343 C 155.646 389.796,155.405 390.930,157.388 392.229 C 160.143 394.034,166.432 389.230,169.357 383.086 C 172.337 376.828,172.506 375.841,172.830 362.800 C 172.991 356.310,173.313 350.152,173.546 349.116 C 175.020 342.559,176.302 339.072,179.985 331.600 C 185.829 319.741,187.418 313.865,188.801 298.985 C 189.657 289.774,190.443 284.213,191.259 281.600 C 192.337 278.149,192.324 277.986,193.392 307.400 C 193.720 316.420,194.166 328.210,194.383 333.600 C 194.601 338.990,194.973 348.890,195.212 355.600 C 196.787 399.950,196.473 396.756,199.362 397.785 C 202.811 399.013,203.320 397.198,203.874 381.675 C 204.963 351.195,205.622 333.267,205.994 324.000 C 207.813 278.692,207.664 281.191,208.385 284.060 C 208.864 285.961,211.262 293.176,215.355 305.031 C 219.106 315.894,219.720 319.763,219.383 330.400 C 218.933 344.601,220.979 353.404,227.428 365.011 C 234.751 378.191,235.452 381.187,232.942 388.570 C 230.515 395.707,236.479 395.983,239.835 388.889 C 243.280 381.606,242.313 371.843,237.047 360.754 C 232.614 351.418,231.324 344.056,231.799 330.800 C 232.409 313.812,231.737 308.404,227.404 295.400 C 224.016 285.229,221.577 272.461,224.081 278.000 C 225.397 280.910,233.062 297.610,239.382 311.335 C 242.608 318.339,245.398 324.459,245.583 324.935 C 245.768 325.411,246.728 327.510,247.715 329.600 C 248.703 331.690,250.504 335.560,251.717 338.200 C 252.930 340.840,254.504 344.260,255.213 345.800 C 255.922 347.340,257.042 349.770,257.700 351.200 C 258.359 352.630,259.665 355.510,260.603 357.600 C 261.541 359.690,264.200 365.472,266.511 370.449 C 268.823 375.426,270.833 379.873,270.978 380.331 C 271.765 382.809,274.959 383.878,276.618 382.218 C 278.340 380.496,278.139 379.667,272.214 364.000 C 271.258 361.470,269.723 357.330,268.805 354.800 C 267.886 352.270,266.619 348.850,265.988 347.200 C 265.357 345.550,263.654 340.960,262.204 337.000 C 260.755 333.040,258.774 327.730,257.803 325.200 C 256.831 322.670,254.957 317.630,253.638 314.000 C 252.318 310.370,250.667 305.870,249.969 304.000 C 237.430 270.432,237.903 271.853,240.369 275.158 C 241.232 276.315,244.067 279.606,246.669 282.471 C 261.739 299.066,263.587 301.729,267.601 312.646 C 272.673 326.438,278.168 333.811,291.000 344.044 C 299.833 351.087,301.698 353.847,302.438 360.973 C 303.376 370.013,309.786 366.358,309.055 357.200 C 308.417 349.224,305.422 343.939,296.585 335.200 C 287.128 325.848,283.135 319.647,279.168 308.151 C 274.680 295.149,271.036 288.507,263.636 279.847 C 256.446 271.432,249.917 262.349,250.581 261.686 C 250.675 261.591,254.958 265.448,260.097 270.257 C 267.071 276.782,291.263 299.260,295.767 303.400 C 296.007 303.620,299.892 307.226,304.401 311.414 C 337.586 342.233,335.943 340.800,338.110 340.800 C 339.286 340.800,340.800 339.254,340.800 338.054 C 340.800 336.279,339.330 334.487,326.680 320.851 C 319.613 313.233,310.584 303.497,306.616 299.215 C 302.647 294.933,295.547 287.283,290.837 282.215 C 286.127 277.147,280.271 270.840,277.823 268.200 C 275.375 265.560,271.160 261.015,268.455 258.100 C 265.750 255.185,263.607 252.800,263.694 252.800 C 263.781 252.800,266.090 253.992,268.826 255.449 C 271.562 256.906,275.330 258.774,277.200 259.600 C 292.258 266.252,299.444 271.015,306.096 278.755 C 314.581 288.628,323.008 293.469,341.000 298.807 C 350.240 301.548,353.056 303.495,356.019 309.190 C 359.794 316.446,364.454 313.589,361.813 305.638 C 359.213 297.812,353.039 292.674,340.134 287.596 C 328.896 283.175,322.535 278.647,313.929 268.946 C 304.963 258.838,300.248 255.200,287.105 248.249 C 277.526 243.184,277.309 243.056,273.282 240.068 C 268.814 236.752,267.216 236.265,296.000 246.992 C 302.270 249.328,310.370 252.319,314.000 253.638 C 317.630 254.958,322.670 256.831,325.200 257.803 C 327.730 258.774,333.040 260.755,337.000 262.204 C 340.960 263.654,345.550 265.357,347.200 265.988 C 348.850 266.619,352.270 267.887,354.800 268.806 C 357.330 269.726,361.740 271.354,364.600 272.425 C 380.338 278.320,380.482 278.354,382.218 276.618 C 383.894 274.943,382.805 271.762,380.282 270.963 C 379.797 270.810,376.520 269.347,373.000 267.714 C 361.609 262.428,356.934 260.277,345.800 255.200 C 339.541 252.346,333.190 249.412,329.600 247.715 C 327.510 246.728,325.411 245.768,324.935 245.583 C 324.459 245.398,318.339 242.608,311.335 239.382 C 304.331 236.157,294.280 231.535,289.000 229.111 C 278.365 224.229,278.338 224.214,280.600 224.520 C 281.480 224.639,285.800 224.932,290.200 225.170 C 312.754 226.390,319.140 227.506,326.864 231.578 C 337.886 237.389,349.400 239.338,363.600 237.798 C 378.243 236.210,380.791 236.630,386.600 241.585 C 389.685 244.217,390.634 244.473,391.890 243.013 C 395.031 239.362,388.178 232.066,378.540 228.801 L 374.600 227.466 362.800 227.183 C 347.010 226.803,343.328 225.904,329.200 218.987 C 318.616 213.804,312.405 212.281,296.600 210.993 C 289.559 210.419,280.717 208.877,279.924 208.084 C 279.611 207.771,285.952 207.469,319.400 206.200 C 327.760 205.883,336.670 205.529,339.200 205.412 C 341.730 205.295,349.470 205.001,356.400 204.759 C 398.116 203.300,395.051 203.468,396.243 202.578 C 398.488 200.901,398.512 199.110,396.312 197.471 C 395.287 196.709,394.069 196.619,375.712 195.946 C 364.980 195.552,348.730 194.950,339.600 194.608 C 330.470 194.266,315.530 193.710,306.400 193.373 C 297.270 193.036,288.090 192.631,286.000 192.473 L 282.200 192.186 285.600 191.248 C 287.470 190.732,291.250 189.497,294.000 188.505 C 314.998 180.930,316.218 180.673,331.600 180.589 C 347.933 180.500,352.335 179.380,366.800 171.632 C 378.940 165.129,381.251 164.657,388.691 167.163 C 395.633 169.502,395.920 163.641,389.028 160.266 C 382.719 157.177,372.757 157.649,364.237 161.440 C 357.072 164.628,355.370 165.311,352.252 166.248 C 345.966 168.136,341.455 168.499,328.000 168.200 C 312.267 167.851,307.389 168.528,294.800 172.809 C 289.105 174.745,282.967 176.245,279.349 176.583 C 275.930 176.903,275.812 176.979,286.042 172.269 C 297.084 167.185,298.383 166.591,303.000 164.515 C 305.200 163.525,308.856 161.835,311.124 160.758 C 313.392 159.681,315.314 158.800,315.396 158.800 C 315.478 158.800,317.222 158.007,319.272 157.038 C 322.206 155.651,342.946 146.139,349.000 143.403 C 349.660 143.105,352.149 141.947,354.531 140.831 C 356.913 139.714,358.916 138.800,358.983 138.800 C 359.050 138.800,361.383 137.720,364.167 136.400 C 366.952 135.080,369.314 134.000,369.417 134.000 C 369.519 134.000,371.267 133.207,373.302 132.238 C 375.336 131.269,378.003 130.033,379.229 129.491 C 382.979 127.835,384.192 125.356,382.218 123.382 C 380.753 121.917,379.602 122.109,371.105 125.237 C 366.867 126.797,361.060 128.931,358.200 129.979 C 355.340 131.027,347.780 133.825,341.400 136.196 C 335.020 138.566,323.770 142.736,316.400 145.462 C 309.030 148.188,301.110 151.125,298.800 151.987 C 296.490 152.850,291.810 154.575,288.400 155.821 C 284.990 157.067,281.660 158.334,281.000 158.637 C 279.497 159.327,273.994 161.200,273.470 161.200 C 273.256 161.200,274.234 160.327,275.644 159.260 C 278.090 157.408,279.236 156.399,288.000 148.378 C 298.931 138.375,301.802 136.563,314.342 131.757 C 327.173 126.838,333.628 121.874,344.194 108.800 C 351.582 99.658,353.876 98.226,362.500 97.371 C 368.852 96.741,366.515 91.498,359.625 90.921 C 351.885 90.272,345.096 93.711,335.400 103.191 C 323.962 114.375,320.922 116.314,307.200 121.178 C 295.197 125.432,289.584 128.451,281.735 134.874 C 279.499 136.703,275.658 139.843,273.200 141.850 C 269.057 145.234,262.087 149.820,261.690 149.423 C 261.595 149.328,262.946 147.754,264.692 145.925 C 266.439 144.096,272.434 137.650,278.015 131.600 C 283.596 125.550,290.610 117.990,293.602 114.800 C 296.594 111.610,302.543 105.213,306.821 100.584 C 311.100 95.955,320.094 86.235,326.810 78.984 C 342.521 62.019,342.435 62.144,339.746 60.029 C 337.444 58.218,336.606 58.735,326.259 68.345 C 322.047 72.258,314.640 79.124,309.800 83.603 C 304.960 88.083,298.680 93.920,295.845 96.574 C 293.010 99.228,290.364 101.683,289.966 102.028 C 289.165 102.724,281.587 109.735,276.593 114.400 C 272.287 118.422,263.172 126.877,260.205 129.600 C 258.886 130.810,256.730 132.824,255.413 134.076 C 252.525 136.822,252.407 136.791,254.090 133.727 C 255.917 130.400,257.366 127.489,262.120 117.600 C 267.789 105.806,272.171 99.392,277.600 94.939 C 287.882 86.507,293.246 77.581,298.407 60.318 C 301.553 49.793,303.512 46.880,309.547 43.755 C 314.901 40.982,314.766 37.376,309.313 37.510 C 300.919 37.717,293.333 45.470,287.676 59.626 C 283.166 70.912,279.220 76.742,271.174 84.000 C 259.004 94.980,254.693 100.391,248.388 112.600 C 243.707 121.664,238.387 130.120,237.761 129.494 C 237.662 129.395,238.650 126.454,239.957 122.957 C 241.264 119.461,243.866 112.460,245.740 107.400 C 254.449 83.886,255.831 80.157,258.266 73.600 C 259.695 69.750,261.753 64.170,262.839 61.200 C 263.924 58.230,265.332 54.450,265.968 52.800 C 266.603 51.150,268.783 45.300,270.812 39.800 C 272.841 34.300,275.198 27.923,276.050 25.628 C 278.156 19.961,278.081 18.228,275.689 17.237 C 273.976 16.527,270.800 18.413,270.800 20.140 C 270.800 20.260,269.523 23.112,267.963 26.479 C 264.248 34.494,261.649 40.131,257.398 49.400 C 255.481 53.580,253.122 58.674,252.156 60.720 C 251.190 62.765,250.400 64.526,250.400 64.631 C 250.400 64.736,249.786 66.123,249.035 67.711 C 247.063 71.883,242.907 80.919,238.415 90.800 C 236.265 95.530,233.739 101.020,232.801 103.000 C 231.864 104.980,230.413 108.130,229.577 110.000 C 226.752 116.321,224.471 121.262,224.298 121.435 C 224.203 121.530,224.269 120.751,224.445 119.704 C 224.620 118.657,225.044 112.400,225.385 105.800 C 226.311 87.924,227.883 79.942,231.978 72.314 C 237.659 61.735,239.211 51.052,237.539 34.038 C 236.318 21.615,236.835 18.969,241.567 13.419 C 243.980 10.589,244.265 9.865,243.456 8.630 C 240.503 4.122,232.232 11.424,228.764 21.600 L 227.470 25.400 227.202 37.000 C 226.842 52.574,225.787 56.964,219.167 70.427 C 213.941 81.056,212.269 87.754,211.013 103.098 C 210.432 110.195,209.276 117.228,208.318 119.487 C 207.917 120.433,207.801 119.609,207.541 114.000 C 206.775 97.463,204.793 45.171,203.992 20.400 C 203.484 4.669,203.478 4.616,202.001 3.140 C 200.561 1.699,199.441 1.697,198.007 3.132 " stroke="none" fill="#bd2929" fill-rule="evenodd"></path><path id="path1" d="M0.000 200.000 L 0.000 400.000 200.000 400.000 L 400.000 400.000 400.000 200.000 L 400.000 0.000 200.000 0.000 L 0.000 0.000 0.000 200.000 M202.001 3.140 C 203.478 4.616,203.484 4.669,203.992 20.400 C 204.793 45.171,206.775 97.463,207.541 114.000 C 207.801 119.609,207.917 120.433,208.318 119.487 C 209.276 117.228,210.432 110.195,211.013 103.098 C 212.269 87.754,213.941 81.056,219.167 70.427 C 225.787 56.964,226.842 52.574,227.202 37.000 L 227.470 25.400 228.764 21.600 C 232.232 11.424,240.503 4.122,243.456 8.630 C 244.265 9.865,243.980 10.589,241.567 13.419 C 236.835 18.969,236.318 21.615,237.539 34.038 C 239.211 51.052,237.659 61.735,231.978 72.314 C 227.883 79.942,226.311 87.924,225.385 105.800 C 225.044 112.400,224.620 118.657,224.445 119.704 C 224.269 120.751,224.203 121.530,224.298 121.435 C 224.471 121.262,226.752 116.321,229.577 110.000 C 230.413 108.130,231.864 104.980,232.801 103.000 C 233.739 101.020,236.265 95.530,238.415 90.800 C 242.907 80.919,247.063 71.883,249.035 67.711 C 249.786 66.123,250.400 64.736,250.400 64.631 C 250.400 64.526,251.190 62.765,252.156 60.720 C 253.122 58.674,255.481 53.580,257.398 49.400 C 261.649 40.131,264.248 34.494,267.963 26.479 C 269.523 23.112,270.800 20.260,270.800 20.140 C 270.800 18.413,273.976 16.527,275.689 17.237 C 278.081 18.228,278.156 19.961,276.050 25.628 C 275.198 27.923,272.841 34.300,270.812 39.800 C 268.783 45.300,266.603 51.150,265.968 52.800 C 265.332 54.450,263.924 58.230,262.839 61.200 C 261.753 64.170,259.695 69.750,258.266 73.600 C 255.831 80.157,254.449 83.886,245.740 107.400 C 243.866 112.460,241.264 119.461,239.957 122.957 C 238.650 126.454,237.662 129.395,237.761 129.494 C 238.387 130.120,243.707 121.664,248.388 112.600 C 254.693 100.391,259.004 94.980,271.174 84.000 C 279.220 76.742,283.166 70.912,287.676 59.626 C 293.333 45.470,300.919 37.717,309.313 37.510 C 314.766 37.376,314.901 40.982,309.547 43.755 C 303.512 46.880,301.553 49.793,298.407 60.318 C 293.246 77.581,287.882 86.507,277.600 94.939 C 272.171 99.392,267.789 105.806,262.120 117.600 C 257.366 127.489,255.917 130.400,254.090 133.727 C 252.407 136.791,252.525 136.822,255.413 134.076 C 256.730 132.824,258.886 130.810,260.205 129.600 C 263.172 126.877,272.287 118.422,276.593 114.400 C 281.587 109.735,289.165 102.724,289.966 102.028 C 290.364 101.683,293.010 99.228,295.845 96.574 C 298.680 93.920,304.960 88.083,309.800 83.603 C 314.640 79.124,322.047 72.258,326.259 68.345 C 336.606 58.735,337.444 58.218,339.746 60.029 C 342.435 62.144,342.521 62.019,326.810 78.984 C 320.094 86.235,311.100 95.955,306.821 100.584 C 302.543 105.213,296.594 111.610,293.602 114.800 C 290.610 117.990,283.596 125.550,278.015 131.600 C 272.434 137.650,266.439 144.096,264.692 145.925 C 262.946 147.754,261.595 149.328,261.690 149.423 C 262.087 149.820,269.057 145.234,273.200 141.850 C 275.658 139.843,279.499 136.703,281.735 134.874 C 289.584 128.451,295.197 125.432,307.200 121.178 C 320.922 116.314,323.962 114.375,335.400 103.191 C 345.096 93.711,351.885 90.272,359.625 90.921 C 366.515 91.498,368.852 96.741,362.500 97.371 C 353.876 98.226,351.582 99.658,344.194 108.800 C 333.628 121.874,327.173 126.838,314.342 131.757 C 301.802 136.563,298.931 138.375,288.000 148.378 C 279.236 156.399,278.090 157.408,275.644 159.260 C 274.234 160.327,273.256 161.200,273.470 161.200 C 273.994 161.200,279.497 159.327,281.000 158.637 C 281.660 158.334,284.990 157.067,288.400 155.821 C 291.810 154.575,296.490 152.850,298.800 151.987 C 301.110 151.125,309.030 148.188,316.400 145.462 C 323.770 142.736,335.020 138.566,341.400 136.196 C 347.780 133.825,355.340 131.027,358.200 129.979 C 361.060 128.931,366.867 126.797,371.105 125.237 C 379.602 122.109,380.753 121.917,382.218 123.382 C 384.192 125.356,382.979 127.835,379.229 129.491 C 378.003 130.033,375.336 131.269,373.302 132.238 C 371.267 133.207,369.519 134.000,369.417 134.000 C 369.314 134.000,366.952 135.080,364.167 136.400 C 361.383 137.720,359.050 138.800,358.983 138.800 C 358.916 138.800,356.913 139.714,354.531 140.831 C 352.149 141.947,349.660 143.105,349.000 143.403 C 342.946 146.139,322.206 155.651,319.272 157.038 C 317.222 158.007,315.478 158.800,315.396 158.800 C 315.314 158.800,313.392 159.681,311.124 160.758 C 308.856 161.835,305.200 163.525,303.000 164.515 C 298.383 166.591,297.084 167.185,286.042 172.269 C 275.812 176.979,275.930 176.903,279.349 176.583 C 282.967 176.245,289.105 174.745,294.800 172.809 C 307.389 168.528,312.267 167.851,328.000 168.200 C 341.455 168.499,345.966 168.136,352.252 166.248 C 355.370 165.311,357.072 164.628,364.237 161.440 C 372.757 157.649,382.719 157.177,389.028 160.266 C 395.920 163.641,395.633 169.502,388.691 167.163 C 381.251 164.657,378.940 165.129,366.800 171.632 C 352.335 179.380,347.933 180.500,331.600 180.589 C 316.218 180.673,314.998 180.930,294.000 188.505 C 291.250 189.497,287.470 190.732,285.600 191.248 L 282.200 192.186 286.000 192.473 C 288.090 192.631,297.270 193.036,306.400 193.373 C 315.530 193.710,330.470 194.266,339.600 194.608 C 348.730 194.950,364.980 195.552,375.712 195.946 C 394.069 196.619,395.287 196.709,396.312 197.471 C 398.512 199.110,398.488 200.901,396.243 202.578 C 395.051 203.468,398.116 203.300,356.400 204.759 C 349.470 205.001,341.730 205.295,339.200 205.412 C 336.670 205.529,327.760 205.883,319.400 206.200 C 285.952 207.469,279.611 207.771,279.924 208.084 C 280.717 208.877,289.559 210.419,296.600 210.993 C 312.405 212.281,318.616 213.804,329.200 218.987 C 343.328 225.904,347.010 226.803,362.800 227.183 L 374.600 227.466 378.540 228.801 C 388.178 232.066,395.031 239.362,391.890 243.013 C 390.634 244.473,389.685 244.217,386.600 241.585 C 380.791 236.630,378.243 236.210,363.600 237.798 C 349.400 239.338,337.886 237.389,326.864 231.578 C 319.140 227.506,312.754 226.390,290.200 225.170 C 285.800 224.932,281.480 224.639,280.600 224.520 C 278.338 224.214,278.365 224.229,289.000 229.111 C 294.280 231.535,304.331 236.157,311.335 239.382 C 318.339 242.608,324.459 245.398,324.935 245.583 C 325.411 245.768,327.510 246.728,329.600 247.715 C 333.190 249.412,339.541 252.346,345.800 255.200 C 356.934 260.277,361.609 262.428,373.000 267.714 C 376.520 269.347,379.797 270.810,380.282 270.963 C 382.805 271.762,383.894 274.943,382.218 276.618 C 380.482 278.354,380.338 278.320,364.600 272.425 C 361.740 271.354,357.330 269.726,354.800 268.806 C 352.270 267.887,348.850 266.619,347.200 265.988 C 345.550 265.357,340.960 263.654,337.000 262.204 C 333.040 260.755,327.730 258.774,325.200 257.803 C 322.670 256.831,317.630 254.958,314.000 253.638 C 310.370 252.319,302.270 249.328,296.000 246.992 C 267.216 236.265,268.814 236.752,273.282 240.068 C 277.309 243.056,277.526 243.184,287.105 248.249 C 300.248 255.200,304.963 258.838,313.929 268.946 C 322.535 278.647,328.896 283.175,340.134 287.596 C 353.039 292.674,359.213 297.812,361.813 305.638 C 364.454 313.589,359.794 316.446,356.019 309.190 C 353.056 303.495,350.240 301.548,341.000 298.807 C 323.008 293.469,314.581 288.628,306.096 278.755 C 299.444 271.015,292.258 266.252,277.200 259.600 C 275.330 258.774,271.562 256.906,268.826 255.449 C 266.090 253.992,263.781 252.800,263.694 252.800 C 263.607 252.800,265.750 255.185,268.455 258.100 C 271.160 261.015,275.375 265.560,277.823 268.200 C 280.271 270.840,286.127 277.147,290.837 282.215 C 295.547 287.283,302.647 294.933,306.616 299.215 C 310.584 303.497,319.613 313.233,326.680 320.851 C 341.622 336.958,342.068 337.599,339.930 339.874 C 337.812 342.129,336.712 341.413,323.629 329.267 C 317.563 323.636,308.911 315.602,304.401 311.414 C 299.892 307.226,296.007 303.620,295.767 303.400 C 291.263 299.260,267.071 276.782,260.097 270.257 C 254.958 265.448,250.675 261.591,250.581 261.686 C 249.917 262.349,256.446 271.432,263.636 279.847 C 271.036 288.507,274.680 295.149,279.168 308.151 C 283.135 319.647,287.128 325.848,296.585 335.200 C 305.422 343.939,308.417 349.224,309.055 357.200 C 309.786 366.358,303.376 370.013,302.438 360.973 C 301.698 353.847,299.833 351.087,291.000 344.044 C 278.168 333.811,272.673 326.438,267.601 312.646 C 263.587 301.729,261.739 299.066,246.669 282.471 C 244.067 279.606,241.232 276.315,240.369 275.158 C 237.903 271.853,237.430 270.432,249.969 304.000 C 250.667 305.870,252.318 310.370,253.638 314.000 C 254.957 317.630,256.831 322.670,257.803 325.200 C 258.774 327.730,260.755 333.040,262.204 337.000 C 263.654 340.960,265.357 345.550,265.988 347.200 C 266.619 348.850,267.886 352.270,268.805 354.800 C 269.723 357.330,271.258 361.470,272.214 364.000 C 278.139 379.667,278.340 380.496,276.618 382.218 C 274.959 383.878,271.765 382.809,270.978 380.331 C 270.833 379.873,268.823 375.426,266.511 370.449 C 264.200 365.472,261.541 359.690,260.603 357.600 C 259.665 355.510,258.359 352.630,257.700 351.200 C 257.042 349.770,255.922 347.340,255.213 345.800 C 254.504 344.260,252.930 340.840,251.717 338.200 C 250.504 335.560,248.703 331.690,247.715 329.600 C 246.728 327.510,245.768 325.411,245.583 324.935 C 245.398 324.459,242.608 318.339,239.382 311.335 C 233.062 297.610,225.397 280.910,224.081 278.000 C 221.577 272.461,224.016 285.229,227.404 295.400 C 231.737 308.404,232.409 313.812,231.799 330.800 C 231.324 344.056,232.614 351.418,237.047 360.754 C 242.313 371.843,243.280 381.606,239.835 388.889 C 236.479 395.983,230.515 395.707,232.942 388.570 C 235.452 381.187,234.751 378.191,227.428 365.011 C 220.979 353.404,218.933 344.601,219.383 330.400 C 219.720 319.763,219.106 315.894,215.355 305.031 C 211.262 293.176,208.864 285.961,208.385 284.060 C 207.664 281.191,207.813 278.692,205.994 324.000 C 205.622 333.267,204.963 351.195,203.874 381.675 C 203.320 397.198,202.811 399.013,199.362 397.785 C 196.473 396.756,196.787 399.950,195.212 355.600 C 194.973 348.890,194.601 338.990,194.383 333.600 C 194.166 328.210,193.720 316.420,193.392 307.400 C 192.324 277.986,192.337 278.149,191.259 281.600 C 190.443 284.213,189.657 289.774,188.801 298.985 C 187.418 313.865,185.829 319.741,179.985 331.600 C 176.302 339.072,175.020 342.559,173.546 349.116 C 173.313 350.152,172.991 356.310,172.830 362.800 C 172.458 377.744,171.113 382.592,165.724 388.413 C 159.298 395.353,152.539 393.379,158.641 386.343 C 163.122 381.177,163.798 376.841,162.252 363.200 C 160.730 349.776,162.356 339.342,167.629 328.703 C 172.502 318.872,173.966 311.497,174.600 293.600 C 174.736 289.750,175.032 285.010,175.258 283.067 C 175.483 281.124,175.603 279.470,175.526 279.392 C 175.448 279.314,174.048 282.164,172.416 285.725 C 170.783 289.286,168.781 293.640,167.967 295.400 C 167.153 297.160,165.638 300.490,164.601 302.800 C 163.564 305.110,161.835 308.856,160.758 311.124 C 159.681 313.392,158.800 315.322,158.800 315.413 C 158.800 315.504,158.160 316.889,157.377 318.489 C 156.595 320.090,155.333 322.808,154.573 324.530 C 153.813 326.251,151.110 332.191,148.567 337.730 C 146.023 343.268,143.699 348.340,143.402 349.000 C 143.104 349.660,141.947 352.149,140.831 354.531 C 139.714 356.913,138.800 358.916,138.800 358.983 C 138.800 359.050,137.720 361.383,136.400 364.167 C 135.080 366.952,134.000 369.314,134.000 369.417 C 134.000 369.519,133.207 371.267,132.238 373.302 C 131.269 375.336,130.033 378.003,129.491 379.229 C 127.835 382.979,125.356 384.192,123.382 382.218 C 121.917 380.753,122.109 379.602,125.237 371.105 C 126.797 366.867,128.931 361.060,129.979 358.200 C 131.027 355.340,133.825 347.780,136.196 341.400 C 138.566 335.020,142.738 323.770,145.465 316.400 C 152.917 296.265,154.551 291.868,156.620 286.400 C 159.605 278.513,162.386 270.653,162.243 270.510 C 161.658 269.924,156.083 278.748,151.827 287.000 C 145.288 299.675,140.546 305.656,128.826 316.008 C 121.651 322.346,116.207 330.181,112.951 338.854 C 107.336 353.810,99.503 362.260,91.047 362.482 C 85.463 362.629,84.881 358.941,90.094 356.448 C 95.765 353.736,98.164 350.797,100.254 344.002 C 106.987 322.109,110.959 314.936,121.245 306.096 C 127.927 300.352,131.967 294.826,136.949 284.613 C 138.627 281.173,140.000 278.252,140.000 278.121 C 140.000 277.628,146.502 264.969,147.099 264.300 C 150.124 260.913,135.580 274.107,114.800 293.601 C 111.610 296.594,105.213 302.543,100.584 306.821 C 95.955 311.100,86.235 320.094,78.984 326.810 C 62.019 342.521,62.144 342.435,60.029 339.746 C 58.218 337.444,58.735 336.606,68.345 326.259 C 72.258 322.047,79.125 314.640,83.605 309.800 C 88.086 304.960,93.761 298.840,96.218 296.200 C 98.674 293.560,101.115 290.928,101.642 290.351 C 103.172 288.674,111.125 280.099,114.400 276.593 C 118.360 272.354,126.837 263.215,129.600 260.206 C 130.810 258.888,132.911 256.638,134.269 255.205 C 135.627 253.772,137.140 252.086,137.631 251.457 L 138.525 250.315 137.163 251.015 C 134.031 252.624,128.856 256.395,122.588 261.634 C 110.805 271.482,105.745 274.390,92.423 278.966 C 80.578 283.034,74.399 286.950,65.253 296.185 C 57.736 303.776,54.031 306.332,47.800 308.227 C 44.307 309.288,38.266 309.274,36.442 308.200 C 31.822 305.479,33.560 302.400,39.715 302.400 C 45.069 302.400,49.219 299.516,55.869 291.175 C 67.054 277.147,74.182 272.057,90.400 266.520 C 97.094 264.234,103.273 259.733,117.141 247.041 C 120.241 244.204,123.701 241.189,124.829 240.341 C 127.442 238.378,127.018 238.405,121.287 240.571 C 118.709 241.544,112.370 243.906,107.200 245.818 C 95.920 249.990,87.199 253.221,75.400 257.598 C 70.560 259.393,64.170 261.753,61.200 262.841 C 58.230 263.929,54.450 265.341,52.800 265.980 C 51.150 266.619,45.300 268.797,39.800 270.821 C 34.300 272.845,27.923 275.198,25.628 276.050 C 19.961 278.156,18.228 278.081,17.237 275.689 C 16.527 273.976,18.413 270.800,20.140 270.800 C 20.260 270.800,23.112 269.523,26.479 267.963 C 34.560 264.217,40.197 261.619,49.400 257.399 C 53.580 255.482,58.350 253.283,60.000 252.512 C 61.650 251.742,64.368 250.520,66.040 249.797 C 67.712 249.073,69.422 248.288,69.840 248.051 C 70.258 247.815,76.360 244.989,83.400 241.772 C 90.440 238.555,99.260 234.520,103.000 232.805 C 106.740 231.090,112.230 228.584,115.200 227.237 C 118.170 225.890,121.320 224.426,122.200 223.985 L 123.800 223.182 120.864 223.419 C 117.428 223.696,110.434 225.383,105.580 227.107 C 95.351 230.738,87.189 232.151,77.600 231.948 C 54.410 231.457,49.879 232.069,38.888 237.177 C 27.811 242.325,18.959 243.240,11.438 240.016 C 4.176 236.903,4.218 230.646,11.485 232.938 C 19.374 235.426,21.116 235.011,35.200 227.285 C 46.554 221.056,55.988 218.890,69.600 219.385 C 80.969 219.799,85.825 218.849,101.417 213.164 C 105.650 211.620,110.965 209.824,113.229 209.172 C 115.493 208.521,117.407 207.927,117.481 207.852 C 117.754 207.579,62.064 205.356,19.800 203.952 C 3.225 203.401,0.987 202.810,2.234 199.310 C 3.243 196.476,-0.016 196.823,38.800 195.413 C 100.151 193.184,120.494 192.327,120.113 191.987 C 119.082 191.064,112.161 189.851,103.065 188.998 C 85.970 187.396,81.665 186.284,69.000 180.199 C 62.199 176.931,57.582 175.143,53.600 174.236 C 51.950 173.860,50.240 173.454,49.800 173.334 C 49.360 173.213,43.690 172.977,37.200 172.809 C 22.144 172.419,17.410 171.115,11.629 165.763 C 4.856 159.492,6.678 152.446,13.512 158.483 C 18.990 163.321,22.067 163.810,37.000 162.210 C 50.336 160.782,60.942 162.455,71.248 167.613 C 80.283 172.134,87.725 173.731,102.845 174.389 C 108.210 174.623,114.373 175.004,116.539 175.235 C 120.970 175.707,121.547 175.586,119.249 174.666 C 117.670 174.035,109.931 170.472,102.062 166.755 C 99.787 165.680,97.853 164.800,97.767 164.800 C 97.680 164.800,92.792 162.576,86.904 159.858 C 81.017 157.141,73.140 153.519,69.400 151.810 C 60.566 147.775,53.046 144.304,48.800 142.303 C 46.930 141.422,44.770 140.437,44.000 140.114 C 28.356 133.557,16.800 127.465,16.800 125.774 C 16.800 121.677,19.168 121.573,29.000 125.238 C 33.180 126.796,38.490 128.757,40.800 129.595 C 43.110 130.433,46.530 131.695,48.400 132.399 C 50.270 133.102,54.140 134.542,57.000 135.597 C 68.720 139.922,70.393 140.544,74.800 142.217 C 77.330 143.177,82.100 144.953,85.400 146.163 C 102.208 152.329,122.990 160.023,127.750 161.841 C 133.635 164.090,123.700 157.340,113.000 151.820 C 100.332 145.286,94.692 140.808,83.859 128.686 C 79.465 123.770,74.674 119.871,68.369 116.080 C 67.581 115.607,64.611 114.309,61.769 113.196 C 50.576 108.813,48.617 107.712,44.080 103.249 C 38.731 97.989,36.019 90.710,38.279 87.681 C 39.980 85.400,41.675 86.280,43.815 90.551 C 46.448 95.808,49.409 98.148,56.103 100.263 C 67.562 103.884,70.760 104.975,73.709 106.272 C 81.300 109.609,88.670 115.108,94.168 121.537 C 100.391 128.813,106.331 132.812,121.000 139.601 C 126.544 142.167,135.014 146.488,135.700 147.099 C 137.694 148.879,135.900 146.580,132.078 142.460 C 129.701 139.897,122.833 132.490,116.815 126.000 C 110.797 119.510,104.610 112.850,103.068 111.200 C 99.936 107.851,100.134 108.064,85.985 92.800 C 80.377 86.750,72.552 78.328,68.595 74.084 C 59.148 63.953,58.566 63.109,59.543 60.965 C 61.205 57.317,62.999 58.259,74.084 68.595 C 81.488 75.498,101.438 94.011,105.980 98.193 C 107.180 99.297,109.520 101.478,111.180 103.040 C 114.124 105.809,133.382 123.671,143.008 132.560 C 145.653 135.002,148.241 137.360,148.761 137.800 L 149.706 138.600 148.880 136.969 C 146.960 133.178,144.556 129.963,135.595 119.200 C 128.857 111.109,125.431 104.820,121.049 92.502 C 116.422 79.495,113.416 74.760,103.590 65.000 C 96.113 57.572,94.084 54.642,91.935 48.165 C 89.533 40.925,91.842 32.269,95.706 34.030 C 97.024 34.631,97.138 34.943,97.576 39.156 C 98.301 46.143,100.213 48.953,109.000 55.952 C 122.413 66.636,127.729 74.046,133.353 89.897 C 136.002 97.363,139.150 101.836,150.771 114.641 C 153.944 118.139,157.589 122.317,158.871 123.926 C 161.828 127.641,161.820 127.577,158.030 117.461 C 156.287 112.808,153.576 105.490,152.005 101.200 C 150.434 96.910,148.688 92.232,148.124 90.805 C 147.560 89.378,146.327 86.048,145.384 83.405 C 144.441 80.762,143.011 76.890,142.206 74.800 C 141.401 72.710,140.302 69.740,139.764 68.200 C 139.226 66.660,138.163 63.780,137.402 61.800 C 135.726 57.441,131.680 46.552,129.598 40.800 C 128.763 38.490,126.801 33.195,125.239 29.033 C 121.562 19.234,121.669 16.800,125.774 16.800 C 127.465 16.800,133.557 28.356,140.114 44.000 C 140.437 44.770,141.426 46.930,142.312 48.800 C 143.198 50.670,144.280 53.010,144.717 54.000 C 145.153 54.990,147.421 59.914,149.755 64.942 C 152.090 69.971,154.000 74.141,154.000 74.210 C 154.000 74.279,156.430 79.571,159.400 85.971 C 162.370 92.370,164.800 97.677,164.800 97.765 C 164.800 97.853,165.682 99.787,166.760 102.062 C 168.619 105.985,175.100 120.029,176.238 122.600 L 176.769 123.800 176.784 122.450 C 176.814 119.933,174.771 111.063,172.811 105.193 C 168.249 91.535,167.587 86.330,168.176 68.800 C 168.635 55.136,167.525 49.058,162.630 38.451 C 156.766 25.745,156.667 13.870,162.377 7.946 C 166.448 3.722,168.898 5.939,166.943 12.079 C 164.962 18.301,165.740 22.689,170.228 30.600 C 178.855 45.810,180.525 51.923,180.607 68.600 C 180.674 82.194,181.017 84.433,184.654 95.000 C 188.621 106.525,191.175 114.168,191.672 116.000 L 192.160 117.800 192.444 114.400 C 192.600 112.530,192.925 105.150,193.167 98.000 C 193.409 90.850,193.786 81.130,194.004 76.400 C 194.223 71.670,194.578 62.580,194.794 56.200 C 196.666 0.799,196.430 4.709,198.007 3.132 C 199.441 1.697,200.561 1.699,202.001 3.140 " stroke="none" fill="transparent" fill-rule="evenodd"></path></g></svg>